<?xml version="1.0" standalone="no"?>
<!DOCTYPE svg PUBLIC "-//W3C//DTD SVG 20010904//EN"
 "http://www.w3.org/TR/2001/REC-SVG-20010904/DTD/svg10.dtd">
<svg version="1.0" xmlns="http://www.w3.org/2000/svg"
 width="500.000000pt" height="500.000000pt" viewBox="0 0 500.000000 500.000000"
 preserveAspectRatio="xMidYMid meet">
<metadata>
Created by potrace 1.11, written by Peter Selinger 2001-2013
</metadata>
<g transform="translate(0.000000,500.000000) scale(0.100000,-0.100000)"
fill="#000000" stroke="none">
<path d="M1135 4980 c-518 -93 -938 -470 -1081 -970 -54 -189 -53 -152 -50
-1550 2 -1432 -2 -1325 67 -1534 138 -416 471 -743 889 -874 156 -49 90 -47
1550 -47 l1375 0 100 28 c469 131 827 472 964 921 22 70 23 74 41 167 12 65 9
2725 -3 2774 -5 17 -15 57 -23 90 -8 33 -19 69 -23 80 -5 11 -15 36 -22 55
-136 374 -471 692 -856 813 -205 65 -98 61 -1528 63 -1215 2 -1307 1 -1400
-16z m2632 -554 c24 -4 44 -7 45 -7 2 1 36 -10 77 -24 192 -65 343 -186 448
-361 35 -58 89 -207 99 -274 10 -67 11 -1741 1 -1747 -5 -3 -94 -5 -198 -5
-134 0 -189 -4 -190 -12 0 -6 -1 -103 -3 -216 -3 -228 -14 -291 -71 -417 -77
-169 -197 -291 -363 -373 -85 -42 -161 -66 -237 -75 -65 -8 -1638 -8 -1690 0
-267 41 -490 207 -599 447 -57 126 -68 190 -72 418 -1 113 -3 210 -3 217 -1 8
-61 11 -215 11 -118 0 -218 2 -223 5 -4 3 -8 394 -7 869 1 849 2 864 23 943
69 256 239 453 476 551 69 28 108 38 205 52 62 10 2445 7 2497 -2z"/>
<path d="M3555 3803 c-11 -2 -31 -6 -45 -9 -16 -3 -245 -225 -635 -615 l-610
-609 -275 276 c-161 161 -289 281 -309 290 -43 18 -92 18 -136 0 -35 -15 -312
-283 -333 -323 -20 -37 -22 -105 -4 -146 11 -25 176 -197 477 -498 253 -253
472 -469 487 -480 36 -26 114 -35 156 -18 43 18 1629 1602 1648 1646 18 41 18
95 0 136 -13 31 -284 309 -321 330 -25 14 -76 24 -100 20z"/>
</g>
</svg>
