<?xml version="1.0" standalone="no"?>
<!DOCTYPE svg PUBLIC "-//W3C//DTD SVG 20010904//EN"
 "http://www.w3.org/TR/2001/REC-SVG-20010904/DTD/svg10.dtd">
<svg version="1.0" xmlns="http://www.w3.org/2000/svg"
 width="16.000000pt" height="16.000000pt" viewBox="0 0 16.000000 16.000000"
 preserveAspectRatio="xMidYMid meet">
<metadata>
Created by potrace 1.11, written by Peter Selinger 2001-2013
</metadata>
<g transform="translate(0.000000,16.000000) scale(0.005333,-0.005333)"
fill="#000000" stroke="none">
<path d="M700 2993 c-169 -29 -348 -120 -465 -238 -87 -86 -169 -231 -207
-362 l-23 -78 0 -805 c0 -443 3 -818 6 -835 25 -117 63 -209 125 -305 109
-166 272 -285 471 -342 l78 -23 815 0 815 0 79 23 c236 68 418 221 523 437 84
175 83 160 80 1055 -2 432 -6 801 -11 820 -73 327 -319 573 -646 646 -36 8
-1595 15 -1640 7z m1601 -347 c161 -42 295 -173 343 -335 16 -55 17 -137 16
-901 l0 -205 -117 0 -118 0 -1 -125 c-1 -69 -7 -147 -13 -175 -27 -114 -125
-241 -229 -298 -102 -56 -122 -57 -677 -56 -462 0 -515 2 -567 18 -120 38
-219 120 -276 229 -42 81 -55 149 -55 288 l0 121 -130 2 c-72 1 -133 3 -135 6
-3 2 -4 238 -4 523 1 502 2 522 22 583 28 82 57 133 111 190 87 90 183 136
312 148 40 3 383 5 763 4 599 -1 700 -3 755 -17z"/>
<path d="M2015 2181 c-11 -5 -157 -147 -325 -315 l-304 -307 -141 140 c-77 77
-151 144 -164 149 -43 15 -71 1 -146 -74 -139 -139 -147 -115 148 -412 133
-134 255 -250 270 -257 16 -6 39 -10 51 -8 13 3 198 180 440 422 357 357 417
422 418 447 1 41 -10 59 -94 141 -75 74 -112 92 -153 74z"/>
</g>
</svg>
