<?xml version="1.0" encoding="utf-8"?>
<!-- Generator: Adobe Illustrator 16.0.4, SVG Export Plug-In . SVG Version: 6.00 Build 0)  -->
<!DOCTYPE svg PUBLIC "-//W3C//DTD SVG 1.1//EN" "http://www.w3.org/Graphics/SVG/1.1/DTD/svg11.dtd" [
	<!ENTITY st0 "fill:#FFFFFF;stroke:#DDDDDD;stroke-width:2;stroke-miterlimit:10;">
	<!ENTITY st1 "fill:#1CD8B6;">
]>
<svg version="1.1" id="Layer_1" xmlns="http://www.w3.org/2000/svg" xmlns:xlink="http://www.w3.org/1999/xlink" x="0px" y="0px"
	 width="1920px" height="440px" viewBox="0 0 1920 440" style="enable-background:new 0 0 1920 440;" xml:space="preserve">
<polygon style="&st1;" points="1816.957,220.783 1686.059,241.773 1625.552,238.069 1565.043,234.364 1461.098,249.378 
	1357.157,264.389 1302.688,256.803 1248.221,249.216 1193.751,256.803 1139.281,264.389 1084.813,279.562 1030.34,294.736 
	975.872,287.149 921.402,279.562 812.464,294.736 703.525,309.908 649.057,309.908 594.586,309.908 485.648,325.083 376.71,340.256 
	322.242,332.67 267.771,325.083 158.833,340.256 49.895,355.429 10.976,366.514 0,369.64 0,383.357 0,399.125 0,440 1920,440 
	1920,405.524 1920,383.357 1920,204.259 "/>
<path style="&st0;" d="M53.533,357.241c0,2.45-1.986,4.436-4.435,4.436c-2.45,0-4.436-1.985-4.436-4.436
	c0-2.449,1.986-4.435,4.436-4.435C51.546,352.807,53.533,354.792,53.533,357.241"/>
<path style="&st0;" d="M271.135,324.371c0,2.45-1.986,4.436-4.435,4.436c-2.45,0-4.436-1.985-4.436-4.436
	c0-2.449,1.986-4.435,4.436-4.435C269.149,319.937,271.135,321.922,271.135,324.371"/>
<path style="&st0;" d="M159.769,340.018c0,2.45-1.986,4.436-4.435,4.436c-2.45,0-4.436-1.985-4.436-4.436
	c0-2.449,1.986-4.435,4.436-4.435C157.782,335.583,159.769,337.568,159.769,340.018"/>
<path style="&st0;" d="M379.135,340.371c0,2.45-1.986,4.436-4.435,4.436c-2.45,0-4.436-1.985-4.436-4.436
	c0-2.449,1.986-4.435,4.436-4.435C377.149,335.937,379.135,337.922,379.135,340.371"/>
<path style="&st0;" d="M600.635,309.087c0,2.45-1.986,4.436-4.435,4.436c-2.45,0-4.436-1.985-4.436-4.436
	c0-2.449,1.986-4.435,4.436-4.435C598.649,304.652,600.635,306.638,600.635,309.087"/>
<path style="&st0;" d="M484.135,325.371c0,2.45-1.986,4.436-4.435,4.436c-2.45,0-4.436-1.985-4.436-4.436
	c0-2.449,1.986-4.435,4.436-4.435C482.149,320.937,484.135,322.922,484.135,325.371"/>
<path style="&st0;" d="M701.996,310.087c0,2.45-1.986,4.436-4.435,4.436c-2.45,0-4.436-1.985-4.436-4.436
	c0-2.449,1.986-4.435,4.436-4.435C700.009,305.652,701.996,307.638,701.996,310.087"/>
<path style="&st0;" d="M926.217,279.55c0,2.45-1.986,4.436-4.435,4.436c-2.45,0-4.436-1.985-4.436-4.436
	c0-2.449,1.986-4.435,4.436-4.435C924.231,275.115,926.217,277.101,926.217,279.55"/>
<path style="&st0;" d="M811.038,295.342c0,2.45-1.986,4.436-4.435,4.436c-2.45,0-4.436-1.985-4.436-4.436
	c0-2.449,1.986-4.435,4.436-4.435C809.052,290.907,811.038,292.893,811.038,295.342"/>
<path style="&st0;" d="M1035.507,294.342c0,2.45-1.986,4.436-4.435,4.436c-2.451,0-4.437-1.985-4.437-4.436
	c0-2.449,1.985-4.435,4.437-4.435C1033.521,289.907,1035.507,291.893,1035.507,294.342"/>
<path style="&st0;" d="M1142.44,264.42c0,2.45-1.986,4.436-4.435,4.436c-2.451,0-4.437-1.985-4.437-4.436
	c0-2.449,1.985-4.435,4.437-4.435C1140.454,259.985,1142.44,261.971,1142.44,264.42"/>
<path style="&st0;" d="M1252.107,249.42c0,2.45-1.986,4.436-4.435,4.436c-2.451,0-4.437-1.985-4.437-4.436
	c0-2.449,1.985-4.435,4.437-4.435C1250.121,244.985,1252.107,246.971,1252.107,249.42"/>
<path style="&st0;" d="M1361.03,264.42c0,2.45-1.986,4.436-4.435,4.436c-2.451,0-4.437-1.985-4.437-4.436
	c0-2.449,1.985-4.435,4.437-4.435C1359.044,259.985,1361.03,261.971,1361.03,264.42"/>
<path style="&st0;" d="M1570.851,234.151c0,2.45-1.986,4.436-4.435,4.436c-2.451,0-4.437-1.985-4.437-4.436
	c0-2.449,1.985-4.435,4.437-4.435C1568.864,229.717,1570.851,231.702,1570.851,234.151"/>
<path style="&st0;" d="M1467.851,249.42c0,2.45-1.986,4.436-4.435,4.436c-2.451,0-4.437-1.985-4.437-4.436
	c0-2.449,1.985-4.435,4.437-4.435C1465.864,244.985,1467.851,246.971,1467.851,249.42"/>
<path style="&st0;" d="M1689.851,241.55c0,2.45-1.986,4.436-4.435,4.436c-2.451,0-4.437-1.985-4.437-4.436
	c0-2.449,1.985-4.435,4.437-4.435C1687.864,237.115,1689.851,239.101,1689.851,241.55"/>
<path style="&st0;" d="M1808.851,222.151c0,2.45-1.986,4.436-4.435,4.436c-2.451,0-4.437-1.985-4.437-4.436
	c0-2.449,1.985-4.435,4.437-4.435C1806.864,217.717,1808.851,219.702,1808.851,222.151"/>
</svg>
