<?xml version="1.0" encoding="UTF-8"?>
<svg width="278px" height="227px" viewBox="0 0 278 227" version="1.1" xmlns="http://www.w3.org/2000/svg" xmlns:xlink="http://www.w3.org/1999/xlink">
    <!-- Generator: Sketch 42 (36781) - http://www.bohemiancoding.com/sketch -->
    <title>Page 1</title>
    <desc>Created with Sketch.</desc>
    <defs></defs>
    <g id="Page-1" stroke="none" stroke-width="1" fill="none" fill-rule="evenodd" opacity="0.5">
        <g>
            <polygon id="Fill-1" fill-opacity="0.75" fill="#5A6063" points="3.6763 44 0.0003 37.5 3.6763 31 11.0303 31 14.7063 37.5 11.0303 44"></polygon>
            <polygon id="Fill-3" fill-opacity="0.75" fill="#5A6063" points="24.6763 65 21.0003 58.5 24.6763 52 32.0303 52 35.7063 58.5 32.0303 65"></polygon>
            <polygon id="Fill-4" fill="#5A6063" points="53.6763 26 50.0003 19.5 53.6763 13 61.0303 13 64.7063 19.5 61.0303 26"></polygon>
            <polygon id="Fill-6" fill-opacity="0.5" fill="#5A6063" points="88.6763 61 85.0003 54.5 88.6763 48 96.0303 48 99.7063 54.5 96.0303 61"></polygon>
            <polygon id="Fill-8" fill="#5A6063" points="124.6763 29 121.0003 22.5 124.6763 16 132.0303 16 135.7063 22.5 132.0303 29"></polygon>
            <polygon id="Fill-11" fill-opacity="0.5" fill="#5A6063" points="88.6763 102 85.0003 95.5 88.6763 89 96.0303 89 99.7063 95.5 96.0303 102"></polygon>
            <polygon id="Fill-12" fill="#1CD8B6" points="124.6763 70 121.0003 63.5 124.6763 57 132.0303 57 135.7063 63.5 132.0303 70"></polygon>
            <polygon id="Fill-14" fill-opacity="0.75" fill="#5A6063" points="124.6763 111 121.0003 104.5 124.6763 98 132.0303 98 135.7063 104.5 132.0303 111"></polygon>
            <polygon id="Fill-15" fill="#5A6063" points="17.6763 137 14.0003 130.5 17.6763 124 25.0303 124 28.7063 130.5 25.0303 137"></polygon>
            <polygon id="Fill-17" fill-opacity="0.5" fill="#5A6063" points="13.6763 174 10.0003 167.5 13.6763 161 21.0303 161 24.7063 167.5 21.0303 174"></polygon>
            <polygon id="Fill-19" fill-opacity="0.75" fill="#5A6063" points="34.6763 195 31.0003 188.5 34.6763 182 42.0303 182 45.7063 188.5 42.0303 195"></polygon>
            <polygon id="Fill-21" fill-opacity="0.5" fill="#1CD8B6" points="63.6763 156 60.0003 149.5 63.6763 143 71.0303 143 74.7063 149.5 71.0303 156"></polygon>
            <polygon id="Fill-23" fill="#5A6063" points="98.6763 191 95.0003 184.5 98.6763 178 106.0303 178 109.7063 184.5 106.0303 191"></polygon>
            <polygon id="Fill-26" fill-opacity="0.5" fill="#5A6063" points="152.6763 181 149.0003 174.5 152.6763 168 160.0303 168 163.7063 174.5 160.0303 181"></polygon>
            <polygon id="Fill-27" fill-opacity="0.75" fill="#5A6063" points="166.6763 195 163.0003 188.5 166.6763 182 174.0303 182 177.7063 188.5 174.0303 195"></polygon>
            <polygon id="Fill-29" fill="#1CD8B6" points="216.6763 218 212.9993 211.5 216.6763 205 224.0303 205 227.7063 211.5 224.0303 218"></polygon>
            <polygon id="Fill-30" fill-opacity="0.5" fill="#5A6063" points="252.6763 227 248.9993 220.5 252.6763 214 260.0303 214 263.7063 220.5 260.0303 227"></polygon>
            <polygon id="Fill-32" fill="#5A6063" points="266.6763 159 262.9993 152.5 266.6763 146 274.0303 146 277.7063 152.5 274.0303 159"></polygon>
            <polygon id="Fill-34" fill-opacity="0.5" fill="#5A6063" points="236.0298 53 239.7068 59.5 236.0298 66 228.6758 66 224.9998 59.5 228.6758 53"></polygon>
            <polygon id="Fill-37" fill="#5A6063" points="221.6763 0.0002 218.0003 6.5002 221.6763 13.0002 229.0303 13.0002 232.7063 6.5002 229.0303 0.0002"></polygon>
            <polygon id="Fill-38" fill-opacity="0.75" fill="#5A6063" points="186.0298 71 189.7068 77.5 186.0298 84 178.6758 84 174.9998 77.5 178.6758 71"></polygon>
            <polygon id="Fill-40" fill="#5A6063" points="249.6763 110 245.9993 103.5 249.6763 97 257.0303 97 260.7063 103.5 257.0303 110"></polygon>
            <polygon id="Fill-42" fill="#5A6063" points="186.0298 30 189.7068 36.5 186.0298 43 178.6758 43 174.9998 36.5 178.6758 30"></polygon>
        </g>
    </g>
</svg>